<svg width="80" height="80" xmlns="http://www.w3.org/2000/svg">
 <g>
  <title>Layer 1</title>
  <g stroke="null" id="svg_5">
   <path stroke="null" fill="black" id="svg_4" d="m81.406113,80.031982l-81.584351,0s-0.341751,-1.106125 0,-7.005768c4.671777,-2.581146 26.663056,-8.972366 27.916414,-9.586933l0.114,-4.424747l1.709185,-0.491589s0.683603,-6.882965 0.683603,-7.989094c0,0 -2.620668,-5.530926 -3.190418,-8.726563c0,0 -2.164963,0 -2.392813,-2.335289c-0.341877,-2.458195 0,-4.056011 -0.569757,-5.899612c-0.341848,-1.720747 0.911608,-3.564398 1.937086,-3.195635c0,0 -2.278934,-12.659676 0,-16.101116c1.595234,-2.458168 6.494867,-8.726563 18.00326,-10.938925c0,0 2.848541,-0.36871 3.760147,0.122954c0.683609,0.245781 0.569733,0.491613 -0.797607,2.089406c0,0 5.92511,3.933107 7.862198,10.20148c1.139355,3.933108 0.683605,12.413814 0,14.626201c0,0 1.709084,-0.368763 1.481232,1.966528c-0.341877,3.810177 -0.45575,10.815994 -2.962589,9.464008c0,0 -0.113976,7.866192 -2.278782,9.463982c0,0 -0.683758,6.145443 0.341743,6.3913l1.481308,0s0.569729,5.039265 1.70911,6.391277c0,0 24.384193,6.759956 26.777031,9.709816c0.113876,3.19558 0,6.268318 0,6.268318z"/>
  </g>
 </g>
</svg>